<svg width="24" height="24" viewBox="0 0 24 24" fill="none" xmlns="http://www.w3.org/2000/svg">
<path d="M21.8901 14C22.0954 13.549 22.2045 13.0551 22.2045 12.55C22.2045 11.6217 21.8358 10.7315 21.1794 10.0751C20.523 9.41875 19.6328 9.05 18.7045 9.05H17.7045C17.8505 8.39996 17.8527 7.73041 17.7111 7.0796C17.5695 6.42878 17.2869 5.80944 16.8793 5.25693C16.4718 4.70442 15.9473 4.22957 15.3358 3.85948C14.7244 3.48939 14.0379 3.23132 13.3157 3.1C12.5934 2.96868 11.8494 2.96668 11.1263 3.09411C10.4032 3.22155 9.71503 3.47592 9.10113 3.84271C7.86131 4.58348 6.99923 5.73718 6.70455 7.05C5.45682 7.05 4.2602 7.52411 3.37793 8.36802C2.49566 9.21193 2 10.3565 2 11.55C2 12.4262 2.26717 13.2761 2.75837 14M4.5 17.2V17.2143M7 16H6.98889M9.45226 17.2856H9.44444M9.4783 19.7857H9.5M7.05556 21H7.04809M4.54846 19.71V19.7141M7 18.5H6.99218M14.5 17.2V17.2143M17 16H16.9889M19.4523 17.2856H19.4444M19.4783 19.7857H19.5M17.0556 21H17.0481M14.5485 19.71V19.7141M17 18.5H16.9922M11.9999 16H11.9888M12.0554 21H12.048M11.9999 18.5H11.9921" stroke="black" stroke-width="1.5" stroke-linecap="round" stroke-linejoin="round"/>
</svg>
