<svg width="24" height="24" viewBox="0 0 24 24" fill="none" xmlns="http://www.w3.org/2000/svg">
<path d="M11.9425 4.49861C12.0525 4.49861 12.1617 4.49861 12.27 4.49861C11.1995 5.49337 10.5114 6.83181 10.3253 8.28129C10.1392 9.73077 10.4669 11.1996 11.2515 12.4325C12.036 13.6655 13.2278 14.5845 14.6197 15.0298C16.0116 15.4752 17.5155 15.4187 18.87 14.8703C18.349 16.124 17.4973 17.2128 16.406 18.0205C15.3147 18.8282 14.0246 19.3245 12.6733 19.4564C11.322 19.5884 9.96024 19.3511 8.73327 18.7698C7.50629 18.1885 6.46012 17.285 5.70635 16.1558C4.95258 15.0265 4.51949 13.7138 4.45326 12.3578C4.38704 11.0017 4.69018 9.65302 5.33034 8.4557C5.97049 7.25839 6.92366 6.2573 8.08816 5.55922C9.25266 4.86115 10.5848 4.49227 11.9425 4.49194V4.49861Z" stroke="black" stroke-width="1.5" stroke-linecap="square" stroke-linejoin="round"/>
</svg>
